<?xml version="1.0" encoding="UTF-8"?>
<!DOCTYPE svg PUBLIC "-//W3C//DTD SVG 1.1//EN" "http://www.w3.org/Graphics/SVG/1.1/DTD/svg11.dtd">
<!-- Creator: CorelDRAW -->
<svg xmlns="http://www.w3.org/2000/svg" xml:space="preserve" width="155.031mm" height="106.349mm" version="1.1" style="shape-rendering:geometricPrecision; text-rendering:geometricPrecision; image-rendering:optimizeQuality; fill-rule:evenodd; clip-rule:evenodd"
viewBox="0 0 16513.07 11327.67"
 xmlns:xlink="http://www.w3.org/1999/xlink"
 xmlns:xodm="http://www.corel.com/coreldraw/odm/2003">
 <defs>
  <style type="text/css">
   <![CDATA[
    .fil1 {fill:black}
    .fil0 {fill:#E8D063}
   ]]>
  </style>
 </defs>
 <g id="Слой_x0020_1">
  <metadata id="CorelCorpID_0Corel-Layer"/>
  <path class="fil0" d="M2987.44 7044.6c31.19,133.86 190.54,291.43 356.16,855.51 122.89,418.53 577.76,1263.75 827.12,1596.22 697.09,929.43 1380.52,860.84 1907.31,1107.78 413.28,193.73 278.46,196.42 829.39,382.28 920.14,310.43 1654.7,520.43 2597.96,124.62 268.8,-112.8 327.49,-233.23 760.03,-395.29 316.71,-118.65 555.59,-163.32 836.01,-319.3 300.12,-166.95 646.8,-330.42 935.6,-529.67 249.01,-171.81 408.01,-335.51 594.16,-561.16 449.33,-544.68 401.89,-1029.92 603.48,-1425.37 99.92,-196 342.54,-596.98 347.85,-835.64l-373.42 -15.99c-18.74,-2.54 -73.11,-10.83 -133.79,-12.19 -181.51,343.04 -582.24,1161.85 -659.15,1482.4 -89.22,371.82 -389.63,686.4 -653.36,952.8 -123.71,124.95 -198.82,142.65 -353.59,209.98 -246.48,107.25 -392.68,210.77 -720.78,350 -514.49,218.29 -1017.4,294.03 -1534.54,607.01 -291.21,176.24 -760.2,173.7 -1150.69,173.7 -116.64,0 -613.66,-196.05 -767.83,-246.59 -286.33,-93.87 -454.35,-190.79 -706.7,-307.72 -132.62,-61.46 -219.22,-95.2 -347.67,-159.54 -663.64,-332.36 -701.4,-252.23 -915.32,-352.7 -230.8,-108.41 -282.35,-185.56 -462.93,-326.06l-269.73 -237.48c-81.78,-88.6 -141.69,-202.55 -192.25,-314.96l-83.29 -170.32c-144.35,-289.95 -281.63,-568.74 -385.86,-882.17 -88.95,-267.47 -201.08,-507.26 -264.24,-778.35 -238.66,0 -371.19,28.17 -619.92,28.17z"/>
  <path class="fil0" d="M3551.01 2874.2l648.11 -28.17c6.52,-292.81 431.87,-763.93 640.4,-965.78 130.6,-126.4 908.89,-491.96 1060.72,-545.44 272.39,-95.93 1272.95,-435.22 1449.55,-551.12 409.55,-268.77 479.43,-160.44 975.29,-236.44 315.54,-48.37 430.44,33.61 647.97,117.24 207.7,79.85 415.52,134.56 612.09,205.09 195.02,69.99 353.1,179.8 535.39,253.6 200.17,81.06 357.46,169.79 550,267.17 317.47,160.55 384.63,116.22 594.53,194.47 237.55,88.57 780.87,538.57 897.13,709.03l265.02 552.16 563.57 28.17c-22.86,-274.67 -493.73,-941.34 -708.41,-1207.72 -604.67,-750.32 -1330.68,-712.74 -1903.14,-999.24 -121.88,-61 -183.63,-109.8 -309.03,-170 -373.54,-179.32 -1495.39,-497.23 -1926.11,-497.23 -987.27,0 -1284.8,492.43 -2079.27,710.4 -285.5,78.33 -1010.27,438.84 -1257.52,602.25 -98.91,65.36 -181.18,118.2 -269.97,180.88 -294.94,208.17 -494.97,419.56 -693.65,715.27 -73.75,109.77 -281.08,526.13 -292.67,665.4z"/>
  <path class="fil0" d="M7834.12 9749.72c70.05,-5.83 245.92,-50.37 290.05,-50.54 213.64,-0.8 -11.91,87.84 217.16,106.9 0,-245.15 -42,-491.5 56.36,-563.57 0,231.23 28.18,343.82 28.18,563.57 103.67,-8.63 104.09,-9.03 112.71,-112.71 148.53,0 261.77,45.31 394.5,56.36 -66.19,57.54 -107.76,64.11 -198.19,83.6 -183.72,39.58 -796.06,59.33 -900.77,-83.6zm732.64 -253.6c204.16,0 294.12,-105.95 309.97,84.53 -156.44,0 -167.1,-28.17 -309.97,-28.17l0 -56.36zm-28.17 -140.9c3.2,-143.75 6.36,-149.16 121.12,-191.59 121.66,-44.97 132.23,-34.26 217.02,22.52 -82.69,123.48 -198.61,102.12 -338.14,169.07zm-253.61 -253.6c17.14,-205.9 447.33,-309.97 619.92,-309.97l0 84.54c-193.43,45.07 -378.87,220.06 -619.92,225.43zm563.57 -732.64c-4.1,184.07 -28.9,109.4 -378.45,327.97 -168.26,105.21 -371.97,52.27 41.21,-186.18 82.3,-47.51 227.73,-132.69 337.24,-141.79zm-1239.85 -788.99c0,283.23 -5.05,434.53 190.01,655.34 59.41,67.25 100.74,109.35 184.62,153.52 95.62,50.34 164.27,48.89 217.12,121.02 -50.38,22.29 35.53,11.41 -112.71,-28.17l-532.05 651.44c-259.56,341.87 23.65,396.56 -199.92,673.61 -137.09,169.88 -136.09,178.5 -85.21,281.11 101.1,-53.49 70.21,-44.8 148.85,-132.92 395.09,-442.72 -69.22,-369.67 310.69,-816.45 53.42,-62.83 77.19,-90.75 128.06,-153.72l285.93 -305.82c29.34,352.67 -44.83,175.07 -139.67,392.76 -35.97,82.55 20.71,103.64 -7.26,247.38 -19.95,102.53 -67.07,96.16 -78.49,233.39 245.23,-5.46 225.43,-220.2 225.43,-422.68 91.82,63.81 56.36,71.11 56.36,422.68 -663.35,0 -877.71,450.85 309.96,450.85 -56.92,213.21 -420.88,180.54 -533.28,199.36 -96.77,16.2 -308.02,238.5 -312.08,420.56 162.7,-13.54 238.23,-174.65 309.97,-281.78 665.9,0 535.91,-254.32 832.12,-379.54 57.39,-24.25 84.81,-23.77 146.64,-50.62 268.15,-116.39 61.55,-322.83 21.32,-538.86 -26.02,-139.7 77.01,-130.41 -42.02,-355.37 168.76,-113 160.2,-315.86 -56.36,-366.31 48.12,-71.88 92.75,-81.24 117.79,-162.97 30.95,-100.99 -33.26,-107.55 -33.26,-231.53 0,-85.37 317.55,-200.18 139.42,-1041.13 -13.86,-65.44 -28.56,-120.4 -52.34,-173.09 -37,-81.91 -32.58,-100.95 -143.43,-110.18 0,235.95 95.15,352.43 112.71,563.57l-1183.49 0c0,614.18 225.16,548.75 281.78,760.82 -290.83,-24.2 -366.31,-462.06 -366.31,-704.47 0,-242.78 84.53,-377.14 84.53,-619.92 -122.78,10.23 -140.3,49.33 -177.45,245.23 -22.35,117.87 -47.97,245.31 -47.97,402.88z"/>
  <path class="fil1" d="M1465.95 5297.54l-266.03 0 -297.68 0 -2.8 -848.15c7.4,-226.93 -9.16,-62.75 87.34,-194.44l-450.85 0c34.68,30.14 44.37,16.4 69.5,71.38 35.19,76.98 15.03,866.33 15.03,971.22l-253.6 0 -2.81 -848.15c7.41,-226.93 -9.15,-62.75 87.34,-194.44l-450.85 0c43.28,62.27 4.62,35.01 84.54,56.36l0 986.24c-147.44,12.57 -50.94,-26.88 -84.54,56.36l1521.63 0c0,-113.28 10.79,-11.95 -56.22,-56.36z"/>
  <path class="fil1" d="M13582.52 4621.26l0 676.28c-147.43,12.57 -50.92,-26.88 -84.53,56.36l450.85 0c-33.28,-89.18 61.18,-40.41 -84.54,-56.36l0 -676.28 197.25 0 0 676.28c-147.44,12.57 -50.94,-26.88 -84.54,56.36l450.85 0c-33.26,-89.18 61.18,-40.41 -84.53,-56.36 0,-131.48 0.92,-263.28 -0.23,-394.73 -1.98,-226.83 -40.04,-229.42 84.76,-337.91l-929.88 0c44.42,63.92 5.32,32.92 84.53,56.36z"/>
  <path class="fil1" d="M8256.81 5287.93c-33.52,-65.69 -22.1,-216.86 -12.45,-324.51l231.26 2.59c10.72,80.13 45.18,278.78 -21.57,334.53 -81.66,15.27 -41.11,-9.13 -84.53,53.35l450.85 0c-33.28,-89.18 61.18,-40.41 -84.54,-56.36l0 -676.28c82.39,-19.72 40.59,3.62 84.54,-56.36l-450.85 0c5.07,4.42 14.32,2.97 16.39,11.77 18.34,77.66 68.14,-122.12 68.14,354.55l-197.24 0c0,-426.58 -11.41,-235.38 84.53,-366.32l-450.85 0c142.03,123.45 84.54,345.34 84.54,732.64 -147.44,12.57 -50.94,-26.88 -84.54,56.36l366.32 -65.96z"/>
  <path class="fil1" d="M6340.68 5297.54l-84.54 0 0 -338.14c112.27,2.5 225.43,32.71 225.43,140.9l0 56.36c0,65.71 -75.19,140.89 -140.89,140.89zm-84.54 -394.5l0 -281.78c102.25,2.28 169.07,12.37 169.07,112.71l0 56.36c0,100.36 -66.82,110.43 -169.07,112.71zm-253.6 -281.78l0 676.28c-147.44,12.57 -50.94,-26.88 -84.54,56.36 152.74,0 386.73,13.64 529.29,-6.1 193.59,-26.82 236.07,-68.14 316.06,-219.32 -111.69,-211.09 -121.78,-113.61 -253.6,-197.24 324.69,-75.65 212.59,-345.03 -84.58,-366.28 -151.9,-10.85 -350.14,-0.04 -507.17,-0.04 44.42,63.92 5.32,32.92 84.54,56.36z"/>
  <path class="fil1" d="M2902.91 4931.22c0,-406.09 281.78,-537.97 281.78,56.36 0,148.23 -33.88,242.41 -84.54,338.14 -172.22,-14.34 -197.24,-114.83 -197.24,-394.5zm-281.78 28.17c0,537.77 845.35,572.33 845.35,0 0,-579.81 -845.35,-560.1 -845.35,0z"/>
  <path class="fil1" d="M9327.58 5325.72c-161.49,-118.32 -167.08,-732.64 28.17,-732.64 171,0 139.45,449.77 106.71,585.67 -22.4,92.98 -36.08,120.58 -134.88,146.97zm-394.5 -394.5c0,686.18 1010.48,527.23 807.95,-130.35 -124.33,-403.69 -807.95,-344.87 -807.95,130.35z"/>
  <path class="fil1" d="M4819.04 5128.47c0,-76.1 13.45,-77.69 28.17,-140.89 123.83,-2.76 87.78,-19.07 197.25,-28.18l0 253.61c-92.25,61.77 -39.2,73.73 -169.07,84.53 -29.3,-55.36 -56.36,-83.09 -56.36,-169.07zm-197.25 -394.5c0,106.68 197.25,172.79 197.25,28.18l0 -169.07c158.59,0 225.43,1.34 225.43,309.96 -405.47,33.74 -479.04,50.04 -479.04,253.61 0,155.43 181.44,330.87 507.21,112.71 117.79,78.87 110.73,84.53 309.97,84.53 -33.28,-89.18 61.18,-40.41 -84.54,-56.36 0,-168.87 31.86,-396.97 -17.62,-545.95 -88.31,-265.88 -658.66,-312.69 -658.66,-17.62z"/>
  <path class="fil1" d="M3804.62 4621.26l-43.67 548.08c-21.26,77.56 -30.42,83.76 -69.04,128.2l0 -197.24c-454.81,0 -24.02,515.77 118.6,118.67 33.71,-93.87 50.47,-443.68 50.47,-597.71l197.24 0 0.28 592.02c-24.59,167.33 13.78,6.05 -84.81,140.62l450.85 0c-33.28,-89.18 61.18,-40.41 -84.54,-56.36l0 -676.28c82.39,-19.72 40.59,3.62 84.54,-56.36l-732.64 0c49.98,43.45 34.65,37.67 112.71,56.36z"/>
  <path class="fil1" d="M11948.17 5607.5c-33.22,-52.37 -12.2,60 -29.73,-83.58 -0.29,-2.34 -0.72,-80.61 -0.54,-85.69 2.57,-71.07 16.17,-118.04 33.35,-168.87 -9.13,-215.6 -15,-476 25.11,-648.11l140.75 0c-73.74,-68.3 91.11,-55.37 -84.53,-56.36 -106.28,43.27 -49.8,-9.22 -112.58,84.54 -137.02,-91.75 -113.48,-84.54 -338.14,-84.54 43.28,62.28 4.61,35.02 84.53,56.36l0 986.25c-147.43,12.56 -50.94,-26.89 -84.53,56.36l450.85 0c-43.28,-62.28 -4.62,-35.02 -84.54,-56.36z"/>
  <path class="fil1" d="M11243.85 5353.89l-28.32 -7.67c-97.4,-56.62 -126.43,-32.28 -170.88,-103.98 -34.08,-54.99 -26.36,-160.22 -26.36,-254.67l182.99 0c-7.22,-3.97 -15.98,-9.46 -22,-11.31 -183.38,-56.45 43.88,2.65 -186.28,-19.76 -5.14,-46.88 -11.86,-60.48 -6.78,-111.2 8.63,-86.32 24.42,-77.14 32.07,-91.47 11,-115.82 18.86,-135.7 112.71,-160.75 98.29,72.01 109.49,172.82 65,338.14 45.38,32.86 -1.84,17.75 74.25,31.53 3.53,0.64 77.23,-8.05 86.18,-9.14l112.66 6.94c48.02,-207.05 -22.69,-326.51 -195.13,-397.9 -454.13,-188.03 -677.7,396.47 -475.08,644.33 88.19,107.88 272.88,223.46 444.97,146.9z"/>
  <path class="fil1" d="M9834.8 4762.15c0,107.73 -8.65,10.26 28.17,84.53 114.07,-30.45 137.76,-84.7 140.9,-225.43l112.71 0 0 676.28c-147.44,12.57 -50.94,-26.88 -84.54,56.36l422.68 0c-33.28,-89.18 61.18,-40.41 -84.54,-56.36l0 -676.28 112.71 0c10.3,123.73 37.7,197.87 140.9,225.43 45.29,-80.62 28.17,-142.4 28.17,-281.78l-817.17 0 0 197.25z"/>
  <path class="fil1" d="M1199.92 5297.54l266.03 0c-58.11,-51.23 -28.31,-901.6 -28.31,-986.24 77.76,-18.12 63.49,-13.58 112.71,-56.36l-479.04 0c49.22,42.78 34.96,38.24 112.71,56.36 0,249.54 -30.93,772.33 15.89,986.24z"/>
  <path class="fil1" d="M16062.08 5015.75c0,-74.95 18.75,-56.22 -56.22,-56.22l-56.36 84.4c0,-313.17 -45.25,-366.23 84.54,-479.04l-450.85 0c43.28,62.28 4.62,35.02 84.53,56.36l0 676.28c-147.43,12.57 -50.92,-26.88 -84.53,56.36l450.85 0c-43.28,-62.27 -4.62,-35.01 -84.54,-56.36 0,-153.95 39.33,-178.49 112.58,-281.78z"/>
  <path class="fil1" d="M15019.76 4846.68c0,74.95 -18.74,56.22 56.22,56.22 32.07,-48.17 30.32,-135.88 29.33,136.79 -0.32,85.95 -1.16,171.83 -1.16,257.85 -147.43,12.57 -50.92,-26.88 -84.53,56.36l450.85 0c-33.28,-89.18 61.18,-40.41 -84.54,-56.36l0 -676.28c82.39,-19.72 40.59,3.62 84.54,-56.36l-450.85 0c49.22,42.79 34.96,38.24 112.71,56.36 -50.22,104.67 -32.38,112.35 -112.58,225.43z"/>
  <path class="fil1" d="M7270.42 5100.29l0 -56.36c-98.43,-41.21 -30.21,51 -58.43,-111.75 -20.97,-121.01 -16.79,-276.22 70.35,-355.51 3.03,-2.74 11.32,-7.35 16.4,-11.77l-450.85 0c43.28,62.28 4.61,35.02 84.53,56.36l0 676.28c-147.43,12.57 -50.94,-26.88 -84.53,56.36l450.85 0c-33.28,-89.18 61.18,-40.41 -84.54,-56.36 0,-150.81 -17.08,-93.88 56.22,-197.24z"/>
  <path class="fil1" d="M7270.42 5043.94l0 56.36 169.21 -281.78 0 479.03c-147.43,12.57 -50.94,-26.88 -84.53,56.36l422.67 0c-33.26,-89.18 61.18,-40.41 -84.53,-56.36l0 -676.28c82.38,-19.72 40.58,3.62 84.53,-56.36l-450.85 0c49.22,42.79 34.96,38.24 112.71,56.36 -17.39,208.99 -201.92,275.58 -169.21,422.68z"/>
  <path class="fil1" d="M2141.95 4959.4l-54.21 -56.36 -62.14 -14.68c3.77,-224.35 -32.57,-218.39 88.31,-323.46l-450.85 0c142.02,123.45 84.53,345.34 84.53,732.64 -147.44,12.57 -50.94,-26.88 -84.53,56.36l450.85 0c-43.28,-62.27 -4.62,-35.01 -84.54,-56.36l0 -338.14 112.58 0z"/>
  <path class="fil1" d="M12793.67 4593.08l197.1 0c70.15,132.58 56.36,115.42 56.36,309.96 -281.89,65.68 -174.62,-15.58 -253.61,84.39l56.51 0.15c118.02,-1.89 109.46,-7.76 197.1,-28.18 0,235.33 56.2,324.93 -168.93,338.14 45.67,75.31 -64.46,55.86 56.22,56.36 92.6,-24.72 92.78,-40.87 140.89,-112.71 150.95,101.08 76.98,112.71 338.14,112.71 -33.26,-89.18 61.18,-40.41 -84.53,-56.36 0,-198.08 32.89,-468.67 -50.95,-597.15 -63.33,-97.05 -211.63,-178.24 -343.92,-169.42 -197.28,13.15 -94.38,-7.66 -140.52,61.97l0.15 0.15z"/>
  <path class="fil1" d="M15075.98 4902.9c-74.95,0 -56.22,18.74 -56.22,-56.22 -36.42,80.66 -72.28,175.06 -141.04,225.43l0 -450.85c77.76,-18.12 63.5,-13.57 112.71,-56.36l-450.85 0c43.28,62.28 4.62,35.02 84.54,56.36l0 676.28c-147.44,12.57 -50.94,-26.88 -84.54,56.36l422.68 0c-33.28,-89.18 61.18,-40.41 -84.54,-56.36 2.81,-126.17 148.61,-357 197.25,-394.64z"/>
  <path class="fil1" d="M16005.86 4959.53c74.96,0 56.22,-18.74 56.22,56.22 9.81,-66.62 71.91,-150.13 112.85,-197.24l0 479.03c-147.43,12.57 -50.92,-26.88 -84.53,56.36l422.67 0c-33.26,-89.18 61.19,-40.41 -84.53,-56.36l0 -676.28c82.39,-19.72 40.59,3.62 84.53,-56.36l-450.85 0c49.22,42.79 34.96,38.24 112.71,56.36 -7.81,93.95 -25.27,116.58 -67.53,186.62 -27.61,45.75 -70.56,127.69 -101.54,151.66z"/>
  <path class="fil1" d="M12032.57 4564.9c175.64,0.99 10.79,-11.94 84.53,56.36 58.96,130.59 88.59,466.09 15.41,607.56 -27.62,53.4 -17.32,36.48 -54.59,68.72 -8.06,4.8 -38.55,24.86 -44.01,28.68 -3.16,2.22 -14.61,18.73 -17.06,13.28 -2.61,-5.78 -11.89,9.65 -17.89,14.39 265.91,56.59 457.8,-100.33 457.86,-394.16 0.03,-138.84 -46.8,-260.79 -118.81,-333.83 -47.68,-48.35 -219.98,-156.71 -305.44,-61.01z"/>
  <path class="fil1" d="M2087.75 4903.04l54.21 56.36c-19.66,80.81 -21.24,40.69 14.34,152.79 79.3,249.96 191.01,241.7 408.48,241.7 -56.36,-155.68 -5.88,94.53 -132.43,-262.08 -49.87,-140.54 -89.88,-155.22 -233.89,-188.78 40.61,-76.75 75.43,-144.18 84.54,-253.6l15.99 40.36c1.6,4.71 5.37,15.02 7.31,20.87 1.97,5.93 4.71,14.82 6.82,21.38 15.37,47.88 -2.74,26.09 26.25,86.47 277.4,-6.18 197.29,-284.5 28.17,-281.78 -215.85,57.63 -89.47,216.65 -279.77,366.31z"/>
  <path class="fil1" d="M12934.42 5353.89c-120.68,-0.5 -10.54,18.95 -56.22,-56.36 -13.85,-94.07 -19.46,-22.18 -27.16,-141.39 -1.83,-28.3 -0.18,-52.5 -0.23,-80.19l-0.01 -68.24c-0.05,-4.49 -0.16,-13.44 -0.77,-20.13l-56.51 -0.15c-185.44,-79.46 -263.52,97.88 -209.54,235.17 46,116.97 230.98,188.62 350.43,131.29z"/>
  <path class="fil1" d="M5523.5 2338.81l-112.71 0c10.13,-121.69 15.91,-109.93 140.9,-112.71 -32.03,64.58 -16.94,25 -28.18,112.71zm-281.78 -169.07l112.71 56.36c-8.63,103.67 -9.03,104.09 -112.71,112.71l0 56.36c100.05,38.49 41.63,-20.64 28.18,140.89l56.36 0c14.97,-64.24 21.85,-64.8 28.17,-140.89l140.9 0c-30.74,58.08 -39.1,66.78 -56.36,140.89 211.05,-56.36 -66.71,-140.89 253.6,-140.89l-112.71 -56.36c29.97,-128.64 5.86,-101.03 112.71,-112.71l0 -56.36c-97.92,-32.47 -31.37,2.56 -28.17,-140.9l-56.36 0c-6.34,76.08 -13.22,76.66 -28.18,140.9l-112.71 0c14.97,-64.24 21.85,-64.81 28.18,-140.9 -211.06,56.36 66.71,140.9 -253.61,140.9z"/>
  <path class="fil1" d="M5833.46 2395.17c0,-161.92 169.07,-161.92 169.07,0 0,119.38 -169.07,119.38 -169.07,0zm-84.54 -112.71l0 169.07c122.61,106.26 112.7,102.31 309.97,56.36l28.17 -225.43c-185.48,-124.21 -121.46,-87.15 -253.6,-56.36 102.08,-152.45 143.73,-57.57 225.43,-169.07 -134.76,-62.33 -309.97,51.14 -309.97,225.43z"/>
  <path class="fil1" d="M8200.45 2366.98c0,-120.19 197.24,-120.19 197.24,0 0,149.3 -197.24,145.68 -197.24,0zm-84.54 0c0,90.56 77.95,177.4 173.8,183.28 241.39,14.83 257.08,-352.35 23.45,-352.35 -113.82,0 -197.25,61.35 -197.25,169.07z"/>
  <path class="fil1" d="M6256.13 2564.24c-67.04,44.89 -29.34,34.1 -112.71,56.36l0 56.36c123.46,-2.76 87.97,25.47 143.24,-54.01 16.02,-23.03 42.52,-98.81 58.07,-139.18 31.23,-81.09 87.44,-194.79 108.66,-285.84 -59.81,6.54 -120.65,-17.92 -140.9,225.43 -68.04,-49.85 -103.6,-115.86 -112.71,-225.43l-84.53 0c12.87,154.69 106.22,217.51 140.89,366.32z"/>
  <path class="fil1" d="M7016.96 2395.17l0 84.53 -112.71 0c27.12,-101.58 2.57,-75.37 112.71,-84.53zm-169.07 -169.07c132.99,181.52 109.73,-109.52 169.07,112.71 -178.21,0 -134.5,-5.89 -197.25,112.71l26.2 30.13c19.76,30.79 13.06,22.08 30.15,54.4l225.43 0c0,-177.17 69.01,-435.19 -253.6,-309.96z"/>
  <path class="fil1" d="M10595.61 2282.45l169.07 0 0 112.71c0,64.92 -19.61,84.53 -84.53,84.53 -125.59,0 -104.46,-119.84 -84.54,-197.24zm-78.49 6.03c-6.04,145.35 -14.78,124.54 50.32,247.57l253.6 -28.17 28.18 -225.43c-113.99,-98.79 -71.09,-84.54 -253.61,-84.54l-78.49 90.57z"/>
  <path class="fil1" d="M6566.1 2366.98c-47.73,90.2 -63.15,95.05 -112.71,169.07 135.77,-11.3 97.18,-45.71 197.24,-112.71 26.23,98.23 26,103.15 140.9,112.71 -47.73,-90.19 -63.15,-95.05 -112.71,-169.07 49.56,-74.02 64.98,-78.87 112.71,-169.07 -167.22,13.91 -54.67,28.9 -169.07,112.71 -90.89,-135.72 -35.27,-101.16 -140.9,-112.71 19.49,73 49.1,102.09 84.54,169.07z"/>
  <path class="fil1" d="M7580.52 2479.7l0 -112.71 84.53 0c-12.5,150.29 19.56,65.54 -84.53,112.71zm-84.54 56.36c284.07,0 270.98,-29.91 225.43,-225.43l-140.89 0c-9.17,-110.15 17.05,-85.58 -84.54,-112.71l0 338.14z"/>
  <path class="fil1" d="M8904.9 2536.05l56.36 -197.24c73.83,49.43 58.25,14.25 84.54,112.71l56.36 0c26.29,-98.46 10.72,-63.28 84.53,-112.71l56.36 197.24 0 -338.14c-133.3,35.6 -40.4,54.73 -169.07,140.9 -105.95,-77.63 -25.45,-102.55 -169.07,-140.9l0 338.14z"/>
  <path class="fil1" d="M10933.75 2536.05l56.36 -197.24 136 117.93c54.99,-99.91 7.21,-57.7 89.43,-117.93l56.36 197.24 0 -338.14c-166.44,44.45 -12.54,91.57 -197.24,140.9 -24.5,-91.75 -49.15,-116.4 -140.9,-140.9l0 338.14z"/>
  <path class="fil1" d="M8510.41 2366.98c39.91,83.18 31.78,90.29 84.54,169.07 220.84,0 198.65,15.75 225.43,-84.53l-169.07 28.17c-55.17,-104.27 -55.96,-78 -28.18,-197.24l197.25 0c-20.95,-78.45 -5.68,-84.54 -112.71,-84.54 -154.25,0 -145.24,70.78 -197.25,169.07z"/>
  <path class="fil1" d="M9412.11 2479.7l0 -112.71c130.87,10.9 49.28,-30.22 112.71,56.36 -65.6,89.55 19.44,42.53 -112.71,56.36zm-84.53 -197.24l0 253.6 253.6 -28.17c0,-195.83 18.98,-197.25 -169.07,-197.25 -3.8,-170.67 18.26,-82.6 -56.36,-112.71 -19.31,34.37 -28.17,30.14 -28.17,84.54z"/>
  <path class="fil1" d="M9778.44 2395.17c0,114.63 254.68,263.42 309.96,56.36 -157.4,13.09 -59.47,38.65 -225.43,0 0,-193.55 9.51,-169.07 197.25,-169.07 -50.16,-187.84 -281.78,-65.89 -281.78,112.71z"/>
  <path class="fil1" d="M10116.58 2536.05c97.79,-8.14 140.89,-11.07 140.89,-253.6l112.71 0 56.36 253.6 0 -338.14 -225.43 0c-4.31,193.58 -62.82,256.86 -84.53,338.14z"/>
  <path class="fil1" d="M7129.67 2226.1c63.43,86.57 -18.16,45.46 112.71,56.36l0 253.6 84.53 0 0 -253.6 112.71 0 0 -84.54c-67.87,0 -275.74,-13.56 -309.96,28.18z"/>
  <path class="fil1" d="M7777.77 2366.98c41.38,86.24 41.32,190.79 193.08,183.36 104.88,-5.13 97.12,-24.82 116.89,-98.82 -241.33,57.77 -235.52,-4.79 -197.25,-169.07l197.25 -56.36c-223.28,-53.46 -208.09,-51.64 -309.97,140.89z"/>
  <path class="fil1" d="M12793.67 4593.08l-0.15 -0.15c-75.56,-40.97 -28.29,-33.46 -56.36,0.15 -117.69,31.42 -59.75,12.63 -112.71,112.71 53.42,100.95 51.37,128.75 197.25,140.89 0,-124.65 14.79,-142.71 -28.03,-253.6z"/>
  <path class="fil1" d="M9637.54 2536.05l84.54 0 0 -253.6c0,-77.96 -21.74,-67.78 -84.54,-84.54l0 338.14z"/>
  <path class="fil1" d="M8256.81 5287.93l0 -300.35 197.24 0 0 312.96c66.75,-55.75 32.28,-254.4 21.57,-334.53l-231.26 -2.59c-9.65,107.64 -21.07,258.82 12.45,324.51z"/>
  <path class="fil1" d="M11215.53 5346.22l28.32 7.67c55.96,-18.83 191.58,-5.35 197.1,-253.6 -131.48,96.33 31.95,44.5 -153.36,183.89 -7.03,5.29 -30.43,21.24 -36.73,26.45l-35.34 35.6z"/>
  <path class="fil1" d="M11201.28 4987.58c9.98,0 71.26,1.68 72.73,1.41 117.38,-21.75 35.98,0.15 82.42,-35.37 -8.95,1.09 -82.66,9.78 -86.18,9.14 -76.09,-13.78 -28.88,1.33 -74.25,-31.53l-177.71 0 0 -177.39c-7.65,14.34 -23.44,5.16 -32.07,91.47 -5.07,50.72 1.64,64.32 6.78,111.2 230.17,22.41 2.91,-36.69 186.28,19.76 6.02,1.85 14.77,7.34 22,11.31z"/>
  <path class="fil1" d="M11948.17 5607.5l0 -281.78 50.79 28.17c6.01,-4.74 15.28,-20.17 17.89,-14.39 2.45,5.44 13.9,-11.07 17.06,-13.28 5.46,-3.82 35.95,-23.88 44.01,-28.68 -108.21,-2.85 -57.54,7.21 -126.68,-28.17 -17.18,50.83 -30.78,97.8 -33.35,168.87 -0.18,5.08 0.26,83.35 0.54,85.69 17.53,143.58 -3.49,31.21 29.73,83.58z"/>
 </g>
</svg>
