<?xml version="1.0" encoding="UTF-8"?>
<!DOCTYPE svg PUBLIC "-//W3C//DTD SVG 1.1//EN" "http://www.w3.org/Graphics/SVG/1.1/DTD/svg11.dtd">
<!-- Creator: CorelDRAW -->
<svg xmlns="http://www.w3.org/2000/svg" xml:space="preserve" width="210mm" height="297mm" version="1.1" style="shape-rendering:geometricPrecision; text-rendering:geometricPrecision; image-rendering:optimizeQuality; fill-rule:evenodd; clip-rule:evenodd"
viewBox="0 0 21000 29700"
 xmlns:xlink="http://www.w3.org/1999/xlink"
 xmlns:xodm="http://www.corel.com/coreldraw/odm/2003">
 <defs>
  <style type="text/css">
   <![CDATA[
    .fil1 {fill:black}
    .fil0 {fill:#E8D063}
   ]]>
  </style>
 </defs>
 <g id="Слой_x0020_1">
  <metadata id="CorelCorpID_0Corel-Layer"/>
  <path class="fil0" d="M6027.25 10040.36c29.28,125.67 178.89,273.61 334.38,803.19 115.37,392.93 542.42,1186.46 776.53,1498.6 654.46,872.59 1296.09,808.19 1790.66,1040.03 388,181.88 261.43,184.41 778.66,358.9 863.86,291.44 1553.5,488.6 2439.07,117 252.36,-105.9 307.46,-218.97 713.55,-371.11 297.34,-111.39 521.61,-153.33 784.88,-299.77 281.76,-156.74 607.24,-310.21 878.38,-497.28 233.78,-161.3 383.06,-314.99 557.82,-526.84 421.85,-511.37 377.31,-966.93 566.57,-1338.19 93.81,-184.01 321.59,-560.47 326.58,-784.53l-350.58 -15.01c-17.59,-2.38 -68.64,-10.17 -125.61,-11.44 -170.41,322.06 -546.63,1090.79 -618.84,1391.74 -83.76,349.08 -365.8,644.42 -613.4,894.53 -116.14,117.31 -186.66,133.93 -331.96,197.14 -231.41,100.69 -368.66,197.88 -676.7,328.59 -483.02,204.94 -955.18,276.05 -1440.69,569.89 -273.4,165.46 -713.71,163.08 -1080.31,163.08 -109.51,0 -576.13,-184.06 -720.87,-231.51 -268.82,-88.13 -426.56,-179.12 -663.48,-288.9 -124.51,-57.7 -205.81,-89.38 -326.41,-149.78 -623.05,-312.03 -658.5,-236.8 -859.34,-331.13 -216.68,-101.78 -265.08,-174.21 -434.62,-306.12l-253.23 -222.96c-76.78,-83.18 -133.02,-190.16 -180.49,-295.7l-78.2 -159.9c-135.52,-272.22 -264.41,-533.96 -362.26,-828.22 -83.51,-251.11 -188.78,-476.24 -248.08,-730.75 -224.06,0 -348.49,26.45 -582.01,26.45z"/>
  <path class="fil0" d="M6556.35 6125.02l608.47 -26.45c6.12,-274.9 405.46,-717.21 601.23,-906.71 122.61,-118.67 853.3,-461.87 995.85,-512.08 255.73,-90.06 1195.1,-408.6 1360.9,-517.41 384.5,-252.33 450.11,-150.63 915.64,-221.98 296.24,-45.41 404.11,31.55 608.34,110.07 195,74.97 390.11,126.33 574.65,192.55 183.09,65.71 331.5,168.8 502.65,238.09 187.93,76.1 335.6,159.41 516.36,250.83 298.05,150.73 361.11,109.11 558.17,182.58 223.02,83.15 733.11,505.63 842.26,665.67l248.81 518.39 529.1 26.45c-21.46,-257.87 -463.53,-883.77 -665.08,-1133.86 -567.69,-704.43 -1249.3,-669.15 -1786.74,-938.13 -114.43,-57.27 -172.4,-103.08 -290.13,-159.6 -350.69,-168.35 -1403.93,-466.82 -1808.31,-466.82 -926.89,0 -1206.22,462.31 -1952.1,666.95 -268.04,73.54 -948.48,412 -1180.61,565.42 -92.86,61.36 -170.1,110.97 -253.46,169.82 -276.9,195.44 -464.7,393.9 -651.23,671.52 -69.24,103.06 -263.89,493.95 -274.77,624.7z"/>
  <path class="fil0" d="M10577.51 12580.04c65.77,-5.47 230.88,-47.29 272.31,-47.45 200.57,-0.75 -11.18,82.47 203.88,100.36 0,-230.16 -39.43,-461.44 52.91,-529.1 0,217.09 26.46,322.79 26.46,529.1 97.33,-8.1 97.72,-8.48 105.82,-105.82 139.45,0 245.76,42.54 370.37,52.91 -62.14,54.02 -101.17,60.19 -186.07,78.49 -172.48,37.16 -747.37,55.7 -845.68,-78.49zm687.83 -238.09c191.67,0 276.13,-99.47 291.01,79.36 -146.87,0 -156.88,-26.45 -291.01,-26.45l0 -52.91zm-26.45 -132.28c3,-134.96 5.97,-140.04 113.71,-179.87 114.22,-42.22 124.14,-32.16 203.75,21.14 -77.63,115.93 -186.46,95.87 -317.46,158.73zm-238.1 -238.09c16.09,-193.31 419.97,-291.01 582.01,-291.01l0 79.37c-181.6,42.31 -355.7,206.6 -582.01,211.64zm529.1 -687.83c-3.85,172.81 -27.13,102.71 -355.3,307.91 -157.97,98.78 -349.22,49.07 38.69,-174.79 77.27,-44.6 213.8,-124.57 316.61,-133.12zm-1164.02 -740.74c0,265.91 -4.74,407.95 178.39,615.26 55.78,63.14 94.58,102.66 173.33,144.13 89.77,47.26 154.22,45.9 203.84,113.62 -47.3,20.93 33.36,10.71 -105.82,-26.45l-499.51 611.6c-243.69,320.96 22.2,372.31 -187.69,632.41 -128.71,159.49 -127.77,167.58 -80,263.92 94.92,-50.22 65.92,-42.06 139.75,-124.79 370.93,-415.64 -64.99,-347.06 291.69,-766.52 50.15,-58.99 72.47,-85.2 120.23,-144.32l268.44 -287.12c27.55,331.1 -42.09,164.36 -131.13,368.74 -33.77,77.5 19.44,97.3 -6.82,232.25 -18.73,96.26 -62.97,90.28 -73.69,219.12 230.23,-5.13 211.64,-206.73 211.64,-396.83 86.2,59.91 52.91,66.76 52.91,396.83 -622.78,0 -824.03,423.28 291,423.28 -53.44,200.17 -395.14,169.5 -500.66,187.17 -90.85,15.21 -289.18,223.91 -292.99,394.84 152.75,-12.71 223.66,-163.97 291.01,-264.55 625.17,0 503.13,-238.77 781.23,-356.33 53.88,-22.77 79.62,-22.32 137.67,-47.52 251.75,-109.27 57.79,-303.09 20.02,-505.9 -24.43,-131.16 72.3,-122.43 -39.45,-333.64 158.44,-106.09 150.4,-296.54 -52.91,-343.91 45.18,-67.48 87.08,-76.27 110.59,-153 29.06,-94.81 -31.23,-100.97 -31.23,-217.37 0,-80.15 298.13,-187.94 130.89,-977.45 -13.01,-61.44 -26.81,-113.04 -49.14,-162.5 -34.74,-76.9 -30.59,-94.78 -134.66,-103.44 0,221.52 89.33,330.88 105.82,529.1l-1111.11 0c0,576.62 211.39,515.19 264.55,714.29 -273.04,-22.72 -343.91,-433.8 -343.91,-661.38 0,-227.93 79.36,-354.07 79.36,-582.01 -115.27,9.6 -131.72,46.31 -166.6,230.23 -20.98,110.66 -45.04,230.31 -45.04,378.24z"/>
  <path class="fil1" d="M4598.81 8400.15l-249.76 0 -279.47 0 -2.63 -796.28c6.95,-213.05 -8.6,-58.91 82,-182.55l-423.28 0c32.56,28.3 41.66,15.4 65.25,67.01 33.04,72.27 14.11,813.35 14.11,911.82l-238.09 0 -2.64 -796.28c6.96,-213.05 -8.59,-58.91 82,-182.55l-423.28 0c40.63,58.46 4.34,32.87 79.37,52.91l0 925.92c-138.42,11.8 -47.82,-25.24 -79.37,52.91l1428.57 0c0,-106.35 10.13,-11.22 -52.78,-52.91z"/>
  <path class="fil1" d="M15974.33 7765.23l0 634.92c-138.41,11.8 -47.81,-25.24 -79.36,52.91l423.28 0c-31.24,-83.73 57.44,-37.94 -79.37,-52.91l0 -634.92 185.19 0 0 634.92c-138.42,11.8 -47.82,-25.24 -79.37,52.91l423.28 0c-31.23,-83.73 57.44,-37.94 -79.36,-52.91 0,-123.44 0.86,-247.18 -0.22,-370.59 -1.86,-212.96 -37.59,-215.39 79.58,-317.24l-873.01 0c41.7,60.01 4.99,30.91 79.36,52.91z"/>
  <path class="fil1" d="M10974.34 8391.13c-31.47,-61.67 -20.75,-203.6 -11.69,-304.66l217.12 2.43c10.06,75.23 42.42,261.73 -20.25,314.07 -76.67,14.34 -38.6,-8.57 -79.36,50.09l423.28 0c-31.24,-83.73 57.44,-37.94 -79.37,-52.91l0 -634.92c77.35,-18.51 38.11,3.4 79.37,-52.91l-423.28 0c4.76,4.15 13.44,2.79 15.39,11.05 17.22,72.91 63.97,-114.65 63.97,332.87l-185.18 0c0,-400.49 -10.71,-220.98 79.36,-343.92l-423.28 0c133.34,115.9 79.37,324.22 79.37,687.83 -138.42,11.8 -47.82,-25.24 -79.37,52.91l343.92 -61.93z"/>
  <path class="fil1" d="M9175.4 8400.15l-79.37 0 0 -317.46c105.4,2.35 211.64,30.71 211.64,132.28l0 52.91c0,61.69 -70.59,132.27 -132.27,132.27zm-79.37 -370.37l0 -264.55c96,2.14 158.73,11.61 158.73,105.82l0 52.91c0,94.22 -62.73,103.68 -158.73,105.82zm-238.09 -264.55l0 634.92c-138.42,11.8 -47.82,-25.24 -79.37,52.91 143.4,0 363.08,12.81 496.92,-5.73 181.75,-25.18 221.63,-63.97 296.73,-205.91 -104.86,-198.18 -114.33,-106.66 -238.09,-185.18 304.83,-71.02 199.59,-323.93 -79.41,-343.88 -142.61,-10.19 -328.73,-0.04 -476.15,-0.04 41.7,60.01 4.99,30.91 79.37,52.91z"/>
  <path class="fil1" d="M5947.89 8056.24c0,-381.25 264.55,-505.07 264.55,52.91 0,139.16 -31.81,227.58 -79.37,317.46 -161.69,-13.46 -185.18,-107.81 -185.18,-370.37zm-264.55 26.45c0,504.88 793.65,537.33 793.65,0 0,-544.35 -793.65,-525.84 -793.65,0z"/>
  <path class="fil1" d="M11979.63 8426.61c-151.61,-111.08 -156.86,-687.83 26.45,-687.83 160.54,0 130.92,422.26 100.18,549.85 -21.03,87.29 -33.87,113.21 -126.63,137.98zm-370.37 -370.37c0,644.21 948.68,494.98 758.54,-122.38 -116.73,-379 -758.54,-323.78 -758.54,122.38z"/>
  <path class="fil1" d="M7746.83 8241.42c0,-71.45 12.63,-72.94 26.45,-132.27 116.26,-2.59 82.41,-17.9 185.19,-26.46l0 238.1c-86.61,57.99 -36.8,69.22 -158.73,79.36 -27.51,-51.97 -52.91,-78.01 -52.91,-158.73zm-185.19 -370.37c0,100.16 185.19,162.22 185.19,26.46l0 -158.73c148.89,0 211.64,1.26 211.64,291 -380.67,31.68 -449.74,46.98 -449.74,238.1 0,145.92 170.34,310.63 476.19,105.82 110.59,74.05 103.96,79.36 291.01,79.36 -31.24,-83.73 57.44,-37.94 -79.37,-52.91 0,-158.54 29.91,-372.69 -16.54,-512.56 -82.91,-249.62 -618.38,-293.57 -618.38,-16.54z"/>
  <path class="fil1" d="M6794.45 7765.23l-41 514.56c-19.96,72.82 -28.56,78.64 -64.82,120.36l0 -185.18c-426.99,0 -22.55,484.23 111.35,111.41 31.65,-88.13 47.38,-416.54 47.38,-561.15l185.18 0 0.26 555.81c-23.09,157.1 12.94,5.68 -79.62,132.02l423.28 0c-31.24,-83.73 57.44,-37.94 -79.37,-52.91l0 -634.92c77.35,-18.51 38.11,3.4 79.37,-52.91l-687.83 0c46.92,40.79 32.53,35.37 105.82,52.91z"/>
  <path class="fil1" d="M14439.94 8691.16c-31.19,-49.17 -11.45,56.33 -27.91,-78.47 -0.27,-2.2 -0.68,-75.68 -0.51,-80.45 2.41,-66.72 15.18,-110.82 31.31,-158.54 -8.57,-202.41 -14.08,-446.89 23.57,-608.47l132.14 0c-69.23,-64.12 85.54,-51.98 -79.36,-52.91 -99.78,40.62 -46.75,-8.66 -105.69,79.37 -128.64,-86.14 -106.54,-79.37 -317.46,-79.37 40.63,58.47 4.33,32.88 79.36,52.91l0 925.93c-138.41,11.79 -47.82,-25.25 -79.36,52.91l423.28 0c-40.63,-58.47 -4.34,-32.88 -79.37,-52.91z"/>
  <path class="fil1" d="M13778.7 8453.06l-26.59 -7.2c-91.44,-53.16 -118.7,-30.31 -160.43,-97.62 -32,-51.63 -24.75,-150.42 -24.75,-239.09l171.8 0c-6.78,-3.73 -15,-8.88 -20.65,-10.62 -172.16,-53 41.2,2.49 -174.89,-18.55 -4.83,-44.01 -11.13,-56.78 -6.37,-104.4 8.1,-81.04 22.93,-72.42 30.11,-85.88 10.33,-108.74 17.71,-127.4 105.82,-150.92 92.28,67.61 102.79,162.25 61.02,317.46 42.6,30.85 -1.73,16.66 69.71,29.6 3.31,0.6 72.51,-7.56 80.91,-8.58l105.77 6.52c45.08,-194.39 -21.3,-306.54 -183.2,-373.56 -426.36,-176.53 -636.25,372.22 -446.02,604.92 82.8,101.28 256.19,209.79 417.76,137.92z"/>
  <path class="fil1" d="M12455.82 7897.51c0,101.14 -8.12,9.63 26.45,79.36 107.09,-28.59 129.33,-79.52 132.28,-211.64l105.82 0 0 634.92c-138.42,11.8 -47.82,-25.24 -79.37,52.91l396.83 0c-31.24,-83.73 57.44,-37.94 -79.37,-52.91l0 -634.92 105.82 0c9.67,116.16 35.39,185.77 132.28,211.64 42.52,-75.69 26.45,-133.69 26.45,-264.55l-767.19 0 0 185.19z"/>
  <path class="fil1" d="M4349.05 8400.15l249.76 0c-54.56,-48.1 -26.58,-846.46 -26.58,-925.92 73,-17.01 59.61,-12.75 105.82,-52.91l-449.74 0c46.21,40.16 32.82,35.9 105.82,52.91 0,234.28 -29.04,725.09 14.92,925.92z"/>
  <path class="fil1" d="M18302.24 8135.6c0,-70.37 17.6,-52.78 -52.78,-52.78l-52.91 79.24c0,-294.02 -42.48,-343.83 79.37,-449.74l-423.28 0c40.63,58.47 4.34,32.88 79.36,52.91l0 634.92c-138.41,11.8 -47.81,-25.24 -79.36,52.91l423.28 0c-40.63,-58.46 -4.34,-32.87 -79.37,-52.91 0,-144.53 36.92,-167.57 105.69,-264.55z"/>
  <path class="fil1" d="M17323.67 7976.87c0,70.37 -17.59,52.78 52.78,52.78 30.11,-45.22 28.47,-127.57 27.54,128.42 -0.3,80.69 -1.09,161.32 -1.09,242.08 -138.41,11.8 -47.81,-25.24 -79.36,52.91l423.28 0c-31.24,-83.73 57.44,-37.94 -79.37,-52.91l0 -634.92c77.35,-18.51 38.11,3.4 79.37,-52.91l-423.28 0c46.21,40.17 32.82,35.9 105.82,52.91 -47.15,98.27 -30.4,105.48 -105.69,211.64z"/>
  <path class="fil1" d="M10048.28 8214.97l0 -52.91c-92.41,-38.69 -28.36,47.88 -54.86,-104.92 -19.69,-113.61 -15.76,-259.33 66.05,-333.77 2.84,-2.57 10.63,-6.9 15.4,-11.05l-423.28 0c40.63,58.47 4.33,32.88 79.36,52.91l0 634.92c-138.41,11.8 -47.82,-25.24 -79.36,52.91l423.28 0c-31.24,-83.73 57.44,-37.94 -79.37,-52.91 0,-141.59 -16.04,-88.14 52.78,-185.18z"/>
  <path class="fil1" d="M10048.28 8162.06l0 52.91 158.86 -264.55 0 449.73c-138.41,11.8 -47.82,-25.24 -79.36,52.91l396.82 0c-31.23,-83.73 57.44,-37.94 -79.36,-52.91l0 -634.92c77.34,-18.51 38.1,3.4 79.36,-52.91l-423.28 0c46.21,40.17 32.82,35.9 105.82,52.91 -16.33,196.21 -189.57,258.73 -158.86,396.83z"/>
  <path class="fil1" d="M5233.47 8082.69l-50.89 -52.91 -58.34 -13.78c3.54,-210.63 -30.58,-205.03 82.91,-303.68l-423.28 0c133.33,115.9 79.36,324.22 79.36,687.83 -138.42,11.8 -47.82,-25.24 -79.36,52.91l423.28 0c-40.63,-58.46 -4.34,-32.87 -79.37,-52.91l0 -317.46 105.69 0z"/>
  <path class="fil1" d="M15233.73 7738.78l185.05 0c65.86,124.47 52.91,108.36 52.91,291 -264.65,61.66 -163.94,-14.63 -238.1,79.23l53.05 0.14c110.8,-1.77 102.77,-7.29 185.05,-26.46 0,220.94 52.76,305.06 -158.6,317.46 42.88,70.7 -60.52,52.44 52.78,52.91 86.94,-23.21 87.11,-38.37 132.27,-105.82 141.72,94.9 72.27,105.82 317.46,105.82 -31.23,-83.73 57.44,-37.94 -79.36,-52.91 0,-185.97 30.88,-440.01 -47.83,-560.63 -59.46,-91.11 -198.69,-167.34 -322.89,-159.06 -185.21,12.35 -88.61,-7.19 -131.93,58.18l0.14 0.14z"/>
  <path class="fil1" d="M17376.45 8029.65c-70.37,0 -52.78,17.59 -52.78,-52.78 -34.19,75.73 -67.86,164.35 -132.41,211.64l0 -423.28c73,-17.01 59.62,-12.74 105.82,-52.91l-423.28 0c40.63,58.47 4.34,32.88 79.37,52.91l0 634.92c-138.42,11.8 -47.82,-25.24 -79.37,52.91l396.83 0c-31.24,-83.73 57.44,-37.94 -79.37,-52.91 2.64,-118.45 139.52,-335.17 185.19,-370.5z"/>
  <path class="fil1" d="M18249.46 8082.82c70.38,0 52.78,-17.59 52.78,52.78 9.21,-62.55 67.51,-140.95 105.95,-185.18l0 449.73c-138.41,11.8 -47.81,-25.24 -79.36,52.91l396.82 0c-31.23,-83.73 57.45,-37.94 -79.36,-52.91l0 -634.92c77.35,-18.51 38.11,3.4 79.36,-52.91l-423.28 0c46.21,40.17 32.82,35.9 105.82,52.91 -7.33,88.2 -23.72,109.45 -63.4,175.21 -25.92,42.95 -66.24,119.88 -95.33,142.38z"/>
  <path class="fil1" d="M14519.18 7712.32c164.9,0.93 10.13,-11.21 79.36,52.91 55.35,122.6 83.17,437.58 14.47,570.4 -25.93,50.13 -16.26,34.25 -51.25,64.52 -7.57,4.51 -36.19,23.34 -41.32,26.93 -2.97,2.08 -13.72,17.58 -16.02,12.47 -2.45,-5.43 -11.16,9.06 -16.8,13.51 249.65,53.13 429.8,-94.19 429.86,-370.05 0.03,-130.35 -43.94,-244.84 -111.54,-313.41 -44.76,-45.39 -206.53,-147.13 -286.76,-57.28z"/>
  <path class="fil1" d="M5182.58 8029.78l50.89 52.91c-18.46,75.87 -19.94,38.2 13.46,143.45 74.45,234.67 179.33,226.92 383.5,226.92 -52.91,-146.16 -5.52,88.75 -124.33,-246.05 -46.82,-131.94 -84.38,-145.73 -219.59,-177.23 38.13,-72.06 70.82,-135.36 79.37,-238.09l15.01 37.89c1.5,4.42 5.04,14.1 6.86,19.59 1.85,5.57 4.42,13.91 6.4,20.07 14.43,44.95 -2.57,24.49 24.64,81.18 260.43,-5.8 185.22,-267.1 26.45,-264.55 -202.65,54.11 -84,203.4 -262.66,343.91z"/>
  <path class="fil1" d="M15365.87 8453.06c-113.3,-0.47 -9.9,17.79 -52.78,-52.91 -13,-88.32 -18.27,-20.82 -25.5,-132.74 -1.72,-26.57 -0.17,-49.29 -0.22,-75.29l-0.01 -64.07c-0.05,-4.22 -0.15,-12.62 -0.72,-18.9l-53.05 -0.14c-174.1,-74.6 -247.4,91.89 -196.72,220.79 43.19,109.82 216.85,177.08 329,123.26z"/>
  <path class="fil1" d="M8408.2 5622.38l-105.82 0c9.51,-114.25 14.94,-103.21 132.28,-105.82 -30.07,60.63 -15.9,23.47 -26.46,105.82zm-264.55 -158.73l105.82 52.91c-8.1,97.33 -8.48,97.72 -105.82,105.82l0 52.91c93.93,36.14 39.08,-19.38 26.46,132.27l52.91 0c14.05,-60.31 20.51,-60.84 26.45,-132.27l132.28 0c-28.86,54.53 -36.71,62.7 -52.91,132.27 198.14,-52.91 -62.63,-132.27 238.09,-132.27l-105.82 -52.91c28.14,-120.77 5.5,-94.85 105.82,-105.82l0 -52.91c-91.93,-30.48 -29.45,2.4 -26.45,-132.28l-52.91 0c-5.95,71.43 -12.41,71.97 -26.46,132.28l-105.82 0c14.05,-60.31 20.51,-60.85 26.46,-132.28 -198.15,52.91 62.63,132.28 -238.1,132.28z"/>
  <path class="fil1" d="M8699.21 5675.29c0,-152.02 158.73,-152.02 158.73,0 0,112.08 -158.73,112.08 -158.73,0zm-79.37 -105.82l0 158.73c115.11,99.76 105.81,96.05 291.01,52.91l26.45 -211.64c-174.14,-116.61 -114.03,-81.82 -238.09,-52.91 95.84,-143.13 134.94,-54.05 211.64,-158.73 -126.52,-58.52 -291.01,48.01 -291.01,211.64z"/>
  <path class="fil1" d="M10921.43 5648.83c0,-112.84 185.18,-112.84 185.18,0 0,140.17 -185.18,136.77 -185.18,0zm-79.37 0c0,85.02 73.18,166.55 163.17,172.07 226.63,13.92 241.36,-330.8 22.02,-330.8 -106.86,0 -185.19,57.6 -185.19,158.73z"/>
  <path class="fil1" d="M9096.03 5834.02c-62.94,42.14 -27.55,32.01 -105.82,52.91l0 52.91c115.91,-2.59 82.59,23.91 134.48,-50.71 15.04,-21.62 39.92,-92.77 54.52,-130.67 29.32,-76.13 82.09,-182.88 102.01,-268.36 -56.15,6.14 -113.27,-16.82 -132.28,211.64 -63.88,-46.8 -97.26,-108.77 -105.82,-211.64l-79.36 0c12.08,145.23 99.72,204.21 132.27,343.92z"/>
  <path class="fil1" d="M9810.32 5675.29l0 79.36 -105.82 0c25.46,-95.37 2.41,-70.76 105.82,-79.36zm-158.73 -158.73c124.86,170.42 103.02,-102.82 158.73,105.82 -167.31,0 -126.27,-5.53 -185.19,105.82l24.6 28.29c18.55,28.91 12.26,20.73 28.31,51.07l211.64 0c0,-166.33 64.79,-408.57 -238.09,-291z"/>
  <path class="fil1" d="M13170.1 5569.47l158.73 0 0 105.82c0,60.95 -18.41,79.36 -79.36,79.36 -117.91,0 -98.07,-112.51 -79.37,-185.18zm-73.69 5.66c-5.67,136.46 -13.88,116.92 47.24,232.43l238.09 -26.45 26.46 -211.64c-107.02,-92.75 -66.74,-79.37 -238.1,-79.37l-73.69 85.03z"/>
  <path class="fil1" d="M9387.04 5648.83c-44.81,84.68 -59.29,89.24 -105.82,158.73 127.47,-10.61 91.24,-42.91 185.18,-105.82 24.63,92.22 24.41,96.84 132.28,105.82 -44.81,-84.67 -59.29,-89.24 -105.82,-158.73 46.53,-69.49 61.01,-74.05 105.82,-158.73 -156.99,13.06 -51.33,27.13 -158.73,105.82 -85.33,-127.42 -33.11,-94.97 -132.28,-105.82 18.3,68.54 46.1,95.85 79.37,158.73z"/>
  <path class="fil1" d="M10339.42 5754.65l0 -105.82 79.36 0c-11.74,141.1 18.36,61.53 -79.36,105.82zm-79.37 52.91c266.7,0 254.41,-28.08 211.64,-211.64l-132.27 0c-8.61,-103.41 16.01,-80.35 -79.37,-105.82l0 317.46z"/>
  <path class="fil1" d="M11582.8 5807.56l52.91 -185.18c69.31,46.41 54.69,13.38 79.37,105.82l52.91 0c24.68,-92.44 10.06,-59.41 79.36,-105.82l52.91 185.18 0 -317.46c-125.15,33.42 -37.93,51.38 -158.73,132.28 -99.47,-72.88 -23.89,-96.28 -158.73,-132.28l0 317.46z"/>
  <path class="fil1" d="M13487.56 5807.56l52.91 -185.18 127.68 110.72c51.63,-93.8 6.77,-54.17 83.96,-110.72l52.91 185.18 0 -317.46c-156.26,41.73 -11.77,85.97 -185.18,132.28 -23,-86.14 -46.14,-109.28 -132.28,-132.28l0 317.46z"/>
  <path class="fil1" d="M11212.43 5648.83c37.47,78.09 29.84,84.77 79.37,158.73 207.33,0 186.5,14.79 211.64,-79.36l-158.73 26.45c-51.8,-97.89 -52.54,-73.23 -26.46,-185.18l185.19 0c-19.67,-73.65 -5.33,-79.37 -105.82,-79.37 -144.82,0 -136.36,66.45 -185.19,158.73z"/>
  <path class="fil1" d="M12058.99 5754.65l0 -105.82c122.87,10.23 46.27,-28.37 105.82,52.91 -61.59,84.07 18.25,39.93 -105.82,52.91zm-79.36 -185.18l0 238.09 238.09 -26.45c0,-183.85 17.82,-185.19 -158.73,-185.19 -3.57,-160.23 17.14,-77.55 -52.91,-105.82 -18.13,32.27 -26.45,28.3 -26.45,79.37z"/>
  <path class="fil1" d="M12402.91 5675.29c0,107.62 239.1,247.31 291,52.91 -147.77,12.29 -55.83,36.29 -211.64,0 0,-181.71 8.93,-158.73 185.19,-158.73 -47.09,-176.35 -264.55,-61.86 -264.55,105.82z"/>
  <path class="fil1" d="M12720.37 5807.56c91.81,-7.64 132.27,-10.39 132.27,-238.09l105.82 0 52.91 238.09 0 -317.46 -211.64 0c-4.05,181.74 -58.98,241.15 -79.36,317.46z"/>
  <path class="fil1" d="M9916.14 5516.56c59.55,81.28 -17.05,42.68 105.82,52.91l0 238.09 79.36 0 0 -238.09 105.82 0 0 -79.37c-63.72,0 -258.88,-12.73 -291,26.46z"/>
  <path class="fil1" d="M10524.6 5648.83c38.85,80.97 38.79,179.12 181.27,172.15 98.47,-4.82 91.18,-23.3 109.74,-92.78 -226.57,54.24 -221.12,-4.5 -185.19,-158.73l185.19 -52.91c-209.62,-50.19 -195.36,-48.48 -291.01,132.27z"/>
  <path class="fil1" d="M15233.73 7738.78l-0.14 -0.14c-70.94,-38.46 -26.56,-31.41 -52.91,0.14 -110.49,29.5 -56.1,11.86 -105.82,105.82 50.15,94.78 48.23,120.88 185.19,132.27 0,-117.03 13.89,-133.98 -26.32,-238.09z"/>
  <path class="fil1" d="M12270.63 5807.56l79.37 0 0 -238.09c0,-73.19 -20.41,-63.63 -79.37,-79.37l0 317.46z"/>
  <path class="fil1" d="M10974.34 8391.13l0 -281.98 185.18 0 0 293.82c62.67,-52.34 30.31,-238.84 20.25,-314.07l-217.12 -2.43c-9.06,101.06 -19.78,242.99 11.69,304.66z"/>
  <path class="fil1" d="M13752.11 8445.86l26.59 7.2c52.54,-17.68 179.86,-5.02 185.05,-238.09 -123.44,90.44 30,41.78 -143.98,172.64 -6.6,4.97 -28.57,19.94 -34.48,24.83l-33.18 33.42z"/>
  <path class="fil1" d="M13738.73 8109.15c9.37,0 66.9,1.58 68.28,1.32 110.2,-20.42 33.78,0.14 77.38,-33.21 -8.4,1.02 -77.6,9.18 -80.91,8.58 -71.44,-12.94 -27.11,1.25 -69.71,-29.6l-166.84 0 0 -166.54c-7.18,13.46 -22.01,4.84 -30.11,85.88 -4.76,47.62 1.54,60.39 6.37,104.4 216.09,21.04 2.73,-34.45 174.89,18.55 5.65,1.74 13.87,6.89 20.65,10.62z"/>
  <path class="fil1" d="M14439.94 8691.16l0 -264.55 47.68 26.45c5.64,-4.45 14.35,-18.94 16.8,-13.51 2.3,5.11 13.05,-10.39 16.02,-12.47 5.13,-3.59 33.75,-22.42 41.32,-26.93 -101.59,-2.68 -54.02,6.77 -118.93,-26.45 -16.13,47.72 -28.9,91.82 -31.31,158.54 -0.17,4.77 0.24,78.25 0.51,80.45 16.46,134.8 -3.28,29.3 27.91,78.47z"/>
 </g>
</svg>
